<svg id="svg" version="1.1" xmlns="http://www.w3.org/2000/svg" xmlns:xlink="http://www.w3.org/1999/xlink" width="400" height="400" viewBox="0, 0, 400,400"><g id="svgg"><path id="path0" d="M199.200 26.518 C 199.090 26.636,195.371 26.927,190.936 27.163 C 151.473 29.270,117.798 42.894,93.009 66.783 C 90.374 69.322,87.769 71.940,87.219 72.600 C 86.670 73.260,85.217 74.970,83.991 76.400 C 78.786 82.471,71.200 94.192,71.200 96.163 C 71.200 96.293,129.430 96.400,200.600 96.400 C 271.770 96.400,330.000 96.355,330.000 96.300 C 329.990 93.264,322.029 81.537,314.256 73.108 C 291.281 48.193,250.351 29.254,215.000 27.180 C 201.991 26.417,199.395 26.308,199.200 26.518 " stroke="none" fill="#fce3a0" fill-rule="evenodd"></path><path id="path1" d="M188.600 10.435 C 185.300 10.599,181.340 10.933,179.800 11.178 C 178.260 11.422,175.020 11.890,172.600 12.218 C 166.543 13.037,162.204 13.802,159.600 14.508 C 158.390 14.837,156.680 15.227,155.800 15.377 C 154.920 15.526,153.660 15.812,153.000 16.011 C 152.340 16.211,150.720 16.675,149.400 17.043 C 145.797 18.048,133.979 21.956,132.540 22.619 C 131.846 22.939,131.027 23.200,130.720 23.200 C 130.412 23.200,129.989 23.362,129.780 23.559 C 129.571 23.757,127.960 24.489,126.200 25.186 C 124.440 25.884,122.640 26.651,122.200 26.890 C 121.760 27.129,121.130 27.457,120.800 27.618 C 120.470 27.779,117.860 29.049,115.000 30.440 C 112.140 31.832,108.900 33.525,107.800 34.202 C 106.700 34.880,105.350 35.650,104.800 35.914 C 103.622 36.480,102.666 37.068,100.927 38.299 C 100.226 38.795,99.566 39.200,99.459 39.200 C 99.296 39.200,97.456 40.420,89.805 45.600 C 89.318 45.930,88.397 46.548,87.760 46.974 C 87.122 47.399,85.579 48.614,84.332 49.674 C 83.084 50.733,81.935 51.600,81.778 51.600 C 81.621 51.600,79.826 53.130,77.789 55.000 C 75.752 56.870,73.929 58.400,73.738 58.400 C 73.291 58.400,58.400 73.299,58.400 73.746 C 58.400 73.932,56.870 75.752,55.000 77.789 C 53.130 79.826,51.600 81.621,51.600 81.778 C 51.600 81.935,50.733 83.084,49.674 84.332 C 48.614 85.579,47.399 87.122,46.974 87.760 C 46.548 88.397,45.930 89.318,45.600 89.805 C 40.420 97.456,39.200 99.296,39.200 99.459 C 39.200 99.566,38.795 100.226,38.299 100.927 C 37.068 102.666,36.480 103.622,35.914 104.800 C 35.650 105.350,34.880 106.700,34.202 107.800 C 33.525 108.900,31.832 112.140,30.440 115.000 C 27.836 120.354,27.465 121.103,26.827 122.300 C 26.622 122.685,25.884 124.440,25.186 126.200 C 24.489 127.960,23.757 129.571,23.559 129.780 C 23.362 129.989,23.200 130.412,23.200 130.720 C 23.200 131.027,22.939 131.846,22.619 132.540 C 21.956 133.979,18.048 145.797,17.043 149.400 C 16.675 150.720,16.211 152.340,16.011 153.000 C 15.812 153.660,15.526 154.920,15.377 155.800 C 15.227 156.680,14.837 158.390,14.508 159.600 C 13.804 162.195,13.042 166.516,12.215 172.600 C 11.886 175.020,11.433 178.170,11.210 179.600 C 9.895 187.999,9.896 213.184,11.210 221.600 C 11.434 223.030,11.886 226.180,12.215 228.600 C 12.993 234.323,13.742 238.552,14.765 243.000 C 15.595 246.603,15.780 247.321,17.034 251.800 C 18.093 255.582,21.958 267.268,22.610 268.660 C 22.934 269.354,23.200 270.173,23.200 270.480 C 23.200 270.788,23.353 271.211,23.540 271.420 C 23.727 271.629,24.192 272.610,24.573 273.600 C 26.094 277.551,33.178 292.171,34.518 294.125 C 34.942 294.743,35.694 296.010,36.188 296.940 C 37.725 299.831,38.165 300.554,39.300 302.058 C 39.905 302.859,40.400 303.643,40.400 303.800 C 40.400 303.957,40.940 304.767,41.600 305.600 C 42.260 306.433,42.800 307.226,42.800 307.362 C 42.800 307.856,46.344 312.747,49.500 316.607 C 50.655 318.020,51.600 319.325,51.600 319.507 C 51.600 319.689,52.320 320.541,53.200 321.400 C 54.080 322.259,54.800 323.212,54.800 323.517 C 54.800 324.241,76.959 346.400,77.683 346.400 C 77.988 346.400,78.941 347.120,79.800 348.000 C 80.659 348.880,81.511 349.600,81.693 349.600 C 81.875 349.600,83.180 350.545,84.593 351.700 C 88.101 354.568,91.111 356.756,94.085 358.600 C 94.440 358.820,96.051 359.897,97.665 360.993 C 100.704 363.056,100.952 363.207,104.075 364.896 C 105.107 365.454,106.457 366.260,107.075 366.686 C 107.694 367.113,111.980 369.305,116.600 371.558 C 121.220 373.811,125.510 375.912,126.132 376.227 C 126.755 376.542,127.475 376.806,127.732 376.814 C 127.990 376.821,128.920 377.175,129.800 377.600 C 130.680 378.025,131.597 378.379,131.839 378.386 C 132.080 378.394,132.811 378.667,133.464 378.992 C 134.118 379.318,136.350 380.118,138.426 380.771 C 140.502 381.423,143.370 382.337,144.800 382.802 C 149.358 384.284,150.170 384.528,151.600 384.841 C 152.370 385.009,153.720 385.349,154.600 385.597 C 156.524 386.139,160.579 386.998,165.200 387.845 C 167.070 388.187,169.500 388.633,170.600 388.834 C 187.123 391.867,213.968 391.869,230.800 388.838 C 237.930 387.554,244.226 386.267,246.400 385.650 C 248.022 385.189,251.958 384.129,254.034 383.595 C 256.762 382.892,267.801 379.120,268.180 378.761 C 268.389 378.562,268.839 378.394,269.180 378.386 C 269.521 378.379,270.520 378.025,271.400 377.600 C 272.280 377.175,273.227 376.821,273.505 376.814 C 273.783 376.806,274.323 376.630,274.705 376.423 C 275.087 376.215,279.360 374.122,284.200 371.772 C 289.040 369.421,293.573 367.071,294.273 366.549 C 294.974 366.027,295.670 365.600,295.821 365.600 C 296.325 365.600,306.325 359.384,306.800 358.776 C 306.910 358.635,307.810 358.016,308.800 357.400 C 309.790 356.784,310.690 356.151,310.800 355.993 C 310.910 355.836,312.057 355.007,313.348 354.153 C 314.639 353.299,316.130 352.311,316.662 351.957 C 317.193 351.603,319.017 350.108,320.714 348.634 C 322.411 347.160,324.610 345.290,325.600 344.479 C 327.937 342.563,342.563 327.937,344.479 325.600 C 345.290 324.610,347.160 322.411,348.634 320.714 C 350.108 319.017,351.603 317.193,351.957 316.662 C 352.311 316.130,353.299 314.639,354.153 313.348 C 355.007 312.057,355.836 310.910,355.993 310.800 C 356.151 310.690,356.784 309.790,357.400 308.800 C 358.016 307.810,358.635 306.910,358.776 306.800 C 359.384 306.325,365.600 296.325,365.600 295.821 C 365.600 295.670,366.027 294.974,366.549 294.273 C 367.071 293.573,369.421 289.040,371.772 284.200 C 374.122 279.360,376.215 275.087,376.423 274.705 C 376.630 274.323,376.806 273.783,376.814 273.505 C 376.821 273.227,377.175 272.280,377.600 271.400 C 378.025 270.520,378.379 269.521,378.386 269.180 C 378.394 268.839,378.562 268.389,378.761 268.180 C 379.120 267.801,382.892 256.762,383.595 254.034 C 384.129 251.958,385.189 248.022,385.650 246.400 C 386.267 244.226,387.554 237.930,388.838 230.800 C 391.869 213.968,391.867 187.123,388.834 170.600 C 388.633 169.500,388.187 167.070,387.845 165.200 C 386.998 160.579,386.139 156.524,385.597 154.600 C 385.349 153.720,385.009 152.370,384.841 151.600 C 384.528 150.170,384.284 149.358,382.802 144.800 C 382.337 143.370,381.423 140.502,380.771 138.426 C 380.118 136.350,379.318 134.118,378.992 133.464 C 378.667 132.811,378.394 132.080,378.386 131.839 C 378.379 131.597,378.025 130.680,377.600 129.800 C 377.175 128.920,376.821 127.990,376.814 127.732 C 376.806 127.475,376.542 126.755,376.227 126.132 C 375.912 125.510,373.811 121.220,371.558 116.600 C 369.305 111.980,367.113 107.694,366.686 107.075 C 366.260 106.457,365.454 105.107,364.896 104.075 C 363.207 100.952,363.056 100.704,360.993 97.665 C 359.897 96.051,358.820 94.440,358.600 94.085 C 356.756 91.111,354.568 88.101,351.700 84.593 C 350.545 83.180,349.600 81.875,349.600 81.693 C 349.600 81.511,348.880 80.659,348.000 79.800 C 347.120 78.941,346.400 77.988,346.400 77.683 C 346.400 76.959,324.241 54.800,323.517 54.800 C 323.212 54.800,322.259 54.080,321.400 53.200 C 320.541 52.320,319.689 51.600,319.507 51.600 C 319.325 51.600,318.020 50.655,316.607 49.500 C 312.747 46.344,307.856 42.800,307.362 42.800 C 307.226 42.800,306.433 42.260,305.600 41.600 C 304.767 40.940,303.957 40.400,303.800 40.400 C 303.643 40.400,302.859 39.905,302.058 39.300 C 300.554 38.165,299.831 37.725,296.940 36.188 C 296.010 35.694,294.743 34.942,294.125 34.518 C 292.171 33.178,277.551 26.094,273.600 24.573 C 272.610 24.192,271.629 23.727,271.420 23.540 C 271.211 23.353,270.788 23.200,270.480 23.200 C 270.173 23.200,269.354 22.934,268.660 22.610 C 267.268 21.958,255.582 18.093,251.800 17.034 C 247.321 15.780,246.603 15.595,243.000 14.765 C 238.537 13.739,234.303 12.989,228.600 12.218 C 226.180 11.890,222.940 11.427,221.400 11.189 C 214.932 10.187,200.326 9.852,188.600 10.435 M216.997 26.011 C 255.721 28.802,299.126 50.651,323.058 79.400 C 338.205 97.595,349.620 123.486,349.142 138.561 C 348.932 145.151,353.304 144.400,315.151 144.400 C 293.291 144.400,282.400 144.535,282.400 144.805 C 282.400 145.028,282.573 145.523,282.785 145.905 C 284.221 148.496,285.939 153.325,286.875 157.400 C 287.546 160.320,287.310 175.318,286.526 179.600 C 281.034 209.599,255.461 217.021,243.115 192.200 C 238.919 183.765,237.556 173.415,238.825 159.621 C 239.316 154.288,239.811 152.437,242.177 147.088 C 242.740 145.817,243.200 144.692,243.200 144.588 C 243.200 144.485,223.940 144.400,200.400 144.400 C 168.336 144.400,157.600 144.516,157.600 144.861 C 157.600 145.115,158.033 146.240,158.562 147.361 C 162.530 155.774,163.592 173.275,160.748 183.400 C 159.256 188.715,156.556 195.041,155.355 196.038 C 155.050 196.291,154.800 196.657,154.800 196.852 C 154.800 197.813,149.366 203.208,146.968 204.629 C 140.016 208.748,132.187 207.874,125.300 202.211 C 113.419 192.440,109.385 162.987,117.611 146.075 L 118.329 144.600 85.777 144.498 L 53.226 144.395 52.772 143.547 C 50.359 139.038,52.984 124.260,58.375 112.000 C 84.181 53.314,144.224 20.764,216.997 26.011 M259.600 137.200 C 258.796 137.457,258.757 137.523,259.400 137.532 C 259.840 137.538,260.560 137.389,261.000 137.200 C 262.019 136.762,260.968 136.762,259.600 137.200 M147.200 140.125 C 147.200 140.194,147.785 140.779,148.500 141.425 L 149.800 142.600 148.625 141.300 C 147.530 140.088,147.200 139.816,147.200 140.125 M125.785 142.500 L 123.800 144.600 125.900 142.615 C 127.851 140.771,128.183 140.400,127.885 140.400 C 127.822 140.400,126.877 141.345,125.785 142.500 M118.046 156.067 C 118.021 156.434,117.896 157.064,117.770 157.467 C 117.552 158.162,117.563 158.163,117.997 157.487 C 118.248 157.096,118.373 156.466,118.273 156.087 C 118.111 155.468,118.088 155.466,118.046 156.067 M116.800 161.200 C 116.800 161.860,116.870 162.400,116.955 162.400 C 117.040 162.400,117.188 161.860,117.285 161.200 C 117.382 160.540,117.313 160.000,117.131 160.000 C 116.949 160.000,116.800 160.540,116.800 161.200 M241.754 161.377 C 241.632 161.694,241.603 162.279,241.689 162.677 C 241.787 163.128,241.924 162.912,242.054 162.100 C 242.271 160.738,242.130 160.396,241.754 161.377 M158.992 169.600 C 158.985 175.579,159.017 175.889,159.332 172.900 C 159.526 171.060,159.529 168.140,159.340 166.300 C 159.031 163.313,158.998 163.627,158.992 169.600 M283.863 165.280 C 284.200 167.049,284.400 167.201,284.400 165.690 C 284.400 165.007,284.223 164.338,284.006 164.204 C 283.760 164.052,283.706 164.455,283.863 165.280 M283.800 174.400 C 283.644 175.747,283.606 176.939,283.716 177.049 C 283.826 177.159,284.044 176.147,284.200 174.800 C 284.356 173.453,284.394 172.261,284.284 172.151 C 284.174 172.041,283.956 173.053,283.800 174.400 M241.600 176.800 C 241.600 177.460,241.749 178.000,241.931 178.000 C 242.113 178.000,242.182 177.460,242.085 176.800 C 241.988 176.140,241.840 175.600,241.755 175.600 C 241.670 175.600,241.600 176.140,241.600 176.800 M116.800 177.510 C 116.800 178.193,116.977 178.862,117.194 178.996 C 117.440 179.148,117.494 178.745,117.337 177.920 C 117.000 176.151,116.800 175.999,116.800 177.510 M242.660 181.600 C 242.795 182.370,243.075 183.180,243.281 183.400 C 243.517 183.651,243.552 183.353,243.374 182.600 C 242.943 180.765,242.373 179.968,242.660 181.600 M117.836 182.266 C 118.213 183.865,118.701 184.271,118.486 182.808 C 118.388 182.138,118.141 181.487,117.938 181.362 C 117.722 181.228,117.679 181.605,117.836 182.266 M156.839 184.060 C 156.309 185.580,156.288 185.882,156.748 185.380 C 157.131 184.962,157.717 182.800,157.447 182.800 C 157.354 182.800,157.081 183.367,156.839 184.060 M282.000 183.303 C 282.000 183.359,281.823 184.022,281.607 184.776 C 281.391 185.529,281.368 185.978,281.555 185.773 C 281.964 185.326,282.503 183.200,282.208 183.200 C 282.093 183.200,282.000 183.246,282.000 183.303 M244.633 187.200 C 244.930 188.314,245.119 188.614,245.367 188.366 C 245.459 188.274,245.272 187.749,244.951 187.199 L 244.367 186.200 244.633 187.200 M119.833 187.600 C 120.130 188.714,120.319 189.014,120.567 188.766 C 120.659 188.674,120.472 188.149,120.151 187.599 L 119.567 186.600 119.833 187.600 M153.195 191.900 C 152.373 193.296,152.368 193.350,153.116 192.674 C 153.796 192.060,154.589 190.400,154.202 190.400 C 154.134 190.400,153.681 191.075,153.195 191.900 M278.150 191.900 C 276.840 193.699,276.544 194.283,277.223 193.731 C 277.801 193.261,279.375 190.800,279.098 190.800 C 279.017 190.800,278.590 191.295,278.150 191.900 M251.085 196.808 C 252.452 198.213,253.640 199.281,253.725 199.181 C 253.809 199.082,252.691 197.932,251.239 196.627 L 248.600 194.253 251.085 196.808 M274.575 196.444 C 273.929 197.129,272.502 198.299,271.405 199.044 C 270.308 199.790,269.606 200.400,269.845 200.400 C 270.466 200.400,273.160 198.352,274.778 196.650 C 275.537 195.852,276.065 195.200,275.953 195.200 C 275.841 195.200,275.221 195.760,274.575 196.444 M125.600 196.333 C 125.600 196.516,126.365 197.265,127.300 197.997 L 129.000 199.327 127.419 197.664 C 125.752 195.910,125.600 195.799,125.600 196.333 M133.863 201.700 C 134.101 202.087,141.253 202.081,141.863 201.694 C 142.118 201.532,140.380 201.400,138.002 201.400 C 135.624 201.400,133.761 201.535,133.863 201.700 M258.662 201.700 C 258.764 201.865,260.626 202.000,262.800 202.000 C 264.974 202.000,266.836 201.865,266.938 201.700 C 267.040 201.535,265.178 201.400,262.800 201.400 C 260.422 201.400,258.560 201.535,258.662 201.700 " stroke="none" fill="#fbbf2d" fill-rule="evenodd"></path><path id="path2" d="M135.200 137.554 C 117.324 140.335,110.366 176.064,124.208 194.000 C 137.945 211.801,158.800 196.938,158.800 169.348 C 158.800 149.724,148.258 135.522,135.200 137.554 M260.000 137.567 C 253.499 138.604,246.505 146.315,243.825 155.400 C 243.436 156.720,242.953 158.330,242.752 158.978 C 240.802 165.273,241.791 178.767,244.755 186.286 C 252.373 205.612,271.874 206.673,279.967 188.200 C 280.449 187.100,281.007 185.840,281.206 185.400 C 281.564 184.612,282.188 182.323,283.225 178.000 C 283.927 175.073,283.928 163.735,283.227 160.800 C 279.282 144.297,270.828 135.840,260.000 137.567 " stroke="none" fill="#7f491e" fill-rule="evenodd"></path><path id="path3" d="M187.636 26.033 C 128.501 29.792,80.481 61.729,58.375 112.000 C 52.984 124.260,50.359 139.038,52.772 143.547 L 53.226 144.395 85.777 144.498 L 118.329 144.600 117.611 146.075 C 109.385 162.987,113.419 192.440,125.300 202.211 C 132.187 207.874,140.016 208.748,146.968 204.629 C 149.366 203.208,154.800 197.813,154.800 196.852 C 154.800 196.657,155.050 196.291,155.355 196.038 C 156.556 195.041,159.256 188.715,160.748 183.400 C 163.592 173.275,162.530 155.774,158.562 147.361 C 158.033 146.240,157.600 145.115,157.600 144.861 C 157.600 144.516,168.336 144.400,200.400 144.400 C 223.940 144.400,243.200 144.485,243.200 144.588 C 243.200 144.692,242.740 145.817,242.177 147.088 C 239.811 152.437,239.316 154.288,238.825 159.621 C 237.556 173.415,238.919 183.765,243.115 192.200 C 255.461 217.021,281.034 209.599,286.526 179.600 C 287.310 175.318,287.546 160.320,286.875 157.400 C 285.939 153.325,284.221 148.496,282.785 145.905 C 282.573 145.523,282.400 145.028,282.400 144.805 C 282.400 144.535,293.291 144.400,315.151 144.400 C 353.304 144.400,348.932 145.151,349.142 138.561 C 349.503 127.161,342.290 107.357,332.037 91.600 C 312.398 61.421,279.290 39.450,238.600 29.596 C 223.239 25.876,207.459 24.773,187.636 26.033 M215.000 27.180 C 250.351 29.254,291.281 48.193,314.256 73.108 C 322.029 81.537,329.990 93.264,330.000 96.300 C 330.000 96.355,271.770 96.400,200.600 96.400 C 129.430 96.400,71.200 96.293,71.200 96.163 C 71.200 94.192,78.786 82.471,83.991 76.400 C 85.217 74.970,86.670 73.260,87.219 72.600 C 108.364 47.206,149.006 29.401,190.936 27.163 C 195.371 26.927,199.090 26.636,199.200 26.518 C 199.395 26.308,201.991 26.417,215.000 27.180 M144.530 138.579 C 146.837 139.689,148.140 140.674,150.127 142.811 C 152.623 145.495,153.402 146.678,155.518 151.000 C 156.057 152.100,156.659 153.319,156.857 153.709 C 157.056 154.099,157.328 155.224,157.463 156.209 C 157.598 157.194,157.835 158.000,157.990 158.000 C 159.620 158.000,159.622 178.694,157.992 181.000 C 157.836 181.220,157.591 182.173,157.447 183.117 C 157.303 184.062,157.028 185.142,156.837 185.517 C 156.645 185.893,156.154 186.920,155.744 187.800 C 155.335 188.680,154.889 189.490,154.754 189.600 C 154.619 189.710,154.368 190.250,154.198 190.800 C 153.608 192.702,147.715 199.200,146.580 199.200 C 146.261 199.200,146.000 199.356,146.000 199.548 C 146.000 201.131,136.113 202.832,133.695 201.665 C 133.313 201.480,131.986 200.839,130.746 200.240 C 128.542 199.174,124.796 195.927,123.600 194.046 C 123.270 193.527,122.820 192.899,122.599 192.651 C 122.379 192.403,121.839 191.480,121.399 190.600 C 120.960 189.720,120.495 188.910,120.367 188.800 C 120.239 188.690,119.797 187.610,119.385 186.400 C 118.972 185.190,118.492 184.002,118.318 183.760 C 118.144 183.517,117.886 182.437,117.745 181.360 C 117.605 180.282,117.289 179.147,117.045 178.838 C 116.430 178.062,116.426 160.484,117.040 160.085 C 117.282 159.928,117.579 159.040,117.701 158.111 C 117.902 156.563,119.886 150.870,120.387 150.400 C 120.504 150.290,121.136 149.129,121.791 147.820 C 123.409 144.586,127.915 140.037,130.906 138.618 C 135.760 136.314,139.797 136.303,144.530 138.579 M267.601 137.686 C 272.562 139.507,279.126 146.180,280.212 150.507 C 280.363 151.108,280.647 151.600,280.843 151.600 C 281.040 151.600,281.200 151.949,281.200 152.376 C 281.200 152.803,281.364 153.254,281.565 153.378 C 281.766 153.503,282.056 154.368,282.210 155.302 C 282.364 156.236,282.650 157.199,282.845 157.441 C 283.041 157.684,283.317 159.265,283.460 160.955 C 283.603 162.644,283.873 164.121,284.060 164.237 C 285.039 164.842,284.020 179.001,282.796 181.800 C 282.604 182.240,282.323 183.224,282.172 183.987 C 282.022 184.750,281.761 185.650,281.592 185.987 C 281.424 186.324,280.709 187.770,280.003 189.200 C 277.615 194.038,273.517 198.578,270.055 200.220 C 268.815 200.808,267.487 201.450,267.105 201.645 C 266.180 202.118,259.376 202.101,258.495 201.624 C 258.113 201.417,257.035 200.932,256.100 200.547 C 255.165 200.161,254.400 199.701,254.400 199.523 C 254.400 199.345,254.162 199.200,253.872 199.200 C 252.909 199.200,247.515 193.206,246.942 191.500 C 246.812 191.115,246.562 190.800,246.385 190.800 C 246.208 190.800,245.945 190.260,245.800 189.600 C 245.655 188.940,245.408 188.400,245.251 188.400 C 245.094 188.400,244.625 187.365,244.210 186.100 C 243.794 184.835,243.312 183.608,243.139 183.374 C 242.966 183.139,242.702 181.879,242.552 180.574 C 242.402 179.268,242.095 178.080,241.870 177.934 C 241.255 177.533,241.302 161.738,241.920 161.120 C 242.184 160.856,242.400 160.157,242.400 159.566 C 242.400 158.547,243.299 155.127,244.022 153.400 C 245.672 149.455,247.488 146.058,248.407 145.200 C 248.524 145.090,249.210 144.243,249.930 143.318 C 253.936 138.170,261.957 135.614,267.601 137.686 " stroke="none" fill="#fcd56b" fill-rule="evenodd"></path><path id="path4" d="M181.300 0.673 C 179.265 0.759,177.600 1.003,177.600 1.215 C 177.600 1.427,176.430 1.600,175.000 1.600 C 173.570 1.600,172.400 1.757,172.400 1.948 C 172.400 2.140,170.602 2.424,168.404 2.580 C 166.206 2.736,164.319 3.008,164.210 3.184 C 164.101 3.361,162.660 3.632,161.008 3.786 C 159.357 3.941,157.904 4.233,157.779 4.434 C 157.655 4.635,157.023 4.800,156.376 4.800 C 155.729 4.800,155.200 4.957,155.200 5.148 C 155.200 5.340,153.940 5.621,152.400 5.773 C 150.860 5.924,149.600 6.205,149.600 6.395 C 149.600 6.586,148.608 6.866,147.395 7.018 C 146.182 7.170,145.091 7.452,144.971 7.647 C 144.851 7.841,144.403 8.000,143.976 8.000 C 143.549 8.000,143.200 8.159,143.200 8.354 C 143.200 8.549,142.213 8.831,141.006 8.982 C 139.800 9.133,138.722 9.403,138.611 9.583 C 138.410 9.907,135.675 10.596,135.100 10.467 C 134.935 10.430,134.800 10.580,134.800 10.800 C 134.800 11.020,134.350 11.200,133.800 11.200 C 133.250 11.200,132.800 11.364,132.800 11.565 C 132.800 11.766,132.080 12.051,131.200 12.200 C 130.320 12.349,129.600 12.634,129.600 12.835 C 129.600 13.036,129.184 13.200,128.676 13.200 C 128.169 13.200,127.404 13.464,126.976 13.787 C 126.549 14.110,125.795 14.380,125.300 14.387 C 124.805 14.394,124.400 14.566,124.400 14.768 C 124.400 14.971,123.830 15.262,123.134 15.414 C 122.438 15.567,121.061 16.122,120.075 16.646 C 119.088 17.171,117.948 17.600,117.540 17.600 C 117.133 17.600,116.800 17.766,116.800 17.968 C 116.800 18.171,116.260 18.455,115.600 18.600 C 114.940 18.745,114.400 19.029,114.400 19.232 C 114.400 19.434,114.113 19.600,113.762 19.600 C 113.124 19.600,110.782 20.761,110.396 21.268 C 110.284 21.416,109.699 21.660,109.096 21.812 C 108.493 21.963,108.000 22.247,108.000 22.443 C 108.000 22.640,107.685 22.801,107.300 22.802 C 106.915 22.803,105.790 23.342,104.800 24.000 C 103.810 24.658,102.775 25.197,102.500 25.198 C 102.225 25.199,102.000 25.360,102.000 25.557 C 102.000 25.753,101.591 26.016,101.092 26.141 C 100.593 26.266,99.814 26.714,99.361 27.136 C 98.909 27.557,98.111 28.038,97.588 28.204 C 97.065 28.370,96.391 28.752,96.090 29.053 C 95.789 29.354,95.286 29.600,94.971 29.600 C 94.657 29.600,94.400 29.752,94.400 29.937 C 94.400 30.122,93.730 30.617,92.911 31.037 C 91.201 31.913,90.691 32.264,89.375 33.469 C 88.853 33.947,88.060 34.454,87.613 34.596 C 87.166 34.738,86.800 35.022,86.800 35.227 C 86.800 35.432,86.573 35.600,86.296 35.600 C 86.019 35.600,85.307 36.050,84.713 36.600 C 84.120 37.150,83.441 37.600,83.205 37.600 C 82.968 37.600,82.671 37.870,82.545 38.200 C 82.418 38.530,82.072 38.800,81.775 38.800 C 81.479 38.800,80.786 39.250,80.236 39.800 C 79.686 40.350,79.093 40.801,78.918 40.802 C 78.743 40.803,78.025 41.343,77.322 42.002 C 76.619 42.661,75.950 43.200,75.835 43.200 C 75.721 43.200,75.075 43.740,74.400 44.400 C 73.725 45.060,73.020 45.600,72.833 45.600 C 72.647 45.600,71.774 46.320,70.894 47.200 C 70.014 48.080,69.168 48.800,69.014 48.800 C 68.859 48.800,66.928 50.600,64.722 52.800 C 62.516 55.000,60.572 56.800,60.402 56.800 C 60.001 56.800,56.800 60.001,56.800 60.402 C 56.800 60.572,55.000 62.516,52.800 64.722 C 50.600 66.928,48.800 68.859,48.800 69.014 C 48.800 69.168,48.080 70.014,47.200 70.894 C 46.320 71.774,45.600 72.647,45.600 72.833 C 45.600 73.020,45.060 73.725,44.400 74.400 C 43.740 75.075,43.200 75.721,43.200 75.835 C 43.200 75.950,42.661 76.619,42.002 77.322 C 41.343 78.025,40.803 78.743,40.802 78.918 C 40.801 79.093,40.350 79.686,39.800 80.236 C 39.250 80.786,38.800 81.498,38.800 81.818 C 38.800 82.138,38.655 82.400,38.477 82.400 C 38.085 82.400,35.600 85.865,35.600 86.412 C 35.600 86.625,35.432 86.800,35.227 86.800 C 35.022 86.800,34.738 87.166,34.596 87.613 C 34.454 88.060,33.947 88.853,33.469 89.375 C 32.134 90.833,31.600 91.540,31.600 91.848 C 31.600 92.173,29.156 96.100,28.767 96.400 C 28.624 96.510,28.372 97.036,28.205 97.569 C 28.038 98.102,27.557 98.909,27.136 99.361 C 26.714 99.814,26.266 100.593,26.141 101.092 C 26.016 101.591,25.753 102.000,25.557 102.000 C 25.360 102.000,25.199 102.225,25.198 102.500 C 25.197 102.775,24.658 103.810,24.000 104.800 C 23.342 105.790,22.803 106.915,22.802 107.300 C 22.801 107.685,22.640 108.000,22.443 108.000 C 22.247 108.000,21.963 108.493,21.812 109.096 C 21.660 109.699,21.416 110.284,21.268 110.396 C 20.761 110.782,19.600 113.124,19.600 113.762 C 19.600 114.113,19.434 114.400,19.232 114.400 C 19.029 114.400,18.745 114.940,18.600 115.600 C 18.455 116.260,18.171 116.800,17.968 116.800 C 17.766 116.800,17.600 117.133,17.600 117.540 C 17.600 117.948,17.171 119.088,16.646 120.075 C 16.122 121.061,15.567 122.438,15.414 123.134 C 15.262 123.830,14.971 124.400,14.768 124.400 C 14.566 124.400,14.394 124.805,14.387 125.300 C 14.380 125.795,14.110 126.549,13.787 126.976 C 13.464 127.404,13.200 128.169,13.200 128.676 C 13.200 129.184,13.022 129.600,12.805 129.600 C 12.587 129.600,12.294 130.320,12.154 131.200 C 12.013 132.080,11.741 132.800,11.549 132.800 C 11.357 132.800,11.200 133.250,11.200 133.800 C 11.200 134.350,11.020 134.800,10.800 134.800 C 10.580 134.800,10.434 134.935,10.476 135.100 C 10.605 135.607,9.930 138.173,9.540 138.658 C 9.338 138.909,9.063 140.034,8.930 141.158 C 8.797 142.281,8.534 143.200,8.344 143.200 C 8.155 143.200,8.000 143.549,8.000 143.976 C 8.000 144.403,7.844 144.849,7.653 144.967 C 7.462 145.085,7.180 146.127,7.027 147.281 C 6.874 148.435,6.580 149.583,6.374 149.831 C 6.168 150.079,5.884 151.388,5.743 152.741 C 5.602 154.093,5.332 155.200,5.143 155.200 C 4.954 155.200,4.800 155.729,4.800 156.376 C 4.800 157.023,4.635 157.655,4.434 157.779 C 4.233 157.904,3.941 159.357,3.786 161.008 C 3.632 162.660,3.361 164.101,3.184 164.210 C 3.008 164.319,2.736 166.206,2.580 168.404 C 2.424 170.602,2.140 172.400,1.948 172.400 C 1.757 172.400,1.600 173.555,1.600 174.967 C 1.600 176.664,1.431 177.590,1.100 177.700 C 0.370 177.943,0.370 222.130,1.100 222.860 C 1.385 223.145,1.600 224.357,1.600 225.680 C 1.600 226.956,1.754 228.000,1.943 228.000 C 2.131 228.000,2.412 229.841,2.567 232.092 C 2.722 234.342,2.999 236.277,3.182 236.392 C 3.365 236.506,3.646 237.995,3.805 239.700 C 3.964 241.405,4.253 242.800,4.447 242.800 C 4.641 242.800,4.800 243.329,4.800 243.976 C 4.800 244.623,4.956 245.249,5.147 245.368 C 5.339 245.486,5.619 246.846,5.772 248.391 C 5.924 249.936,6.197 251.200,6.379 251.200 C 6.683 251.200,7.425 254.616,7.268 255.300 C 7.231 255.465,7.380 255.600,7.600 255.600 C 7.820 255.600,8.000 256.050,8.000 256.600 C 8.000 257.150,8.159 257.600,8.354 257.600 C 8.549 257.600,8.832 258.590,8.983 259.800 C 9.134 261.010,9.384 262.000,9.538 262.000 C 9.800 262.000,10.545 264.393,11.063 266.900 C 11.188 267.505,11.435 268.000,11.610 268.000 C 11.786 268.000,12.051 268.720,12.200 269.600 C 12.349 270.480,12.634 271.200,12.835 271.200 C 13.036 271.200,13.201 271.515,13.202 271.900 C 13.204 272.285,13.474 273.116,13.802 273.746 C 14.131 274.376,14.400 275.141,14.400 275.446 C 14.400 275.751,14.580 276.000,14.800 276.000 C 15.020 276.000,15.201 276.315,15.202 276.700 C 15.204 277.085,15.457 277.883,15.765 278.473 C 16.073 279.063,16.446 280.098,16.594 280.773 C 16.742 281.448,17.029 282.000,17.232 282.000 C 17.434 282.000,17.600 282.349,17.600 282.776 C 17.600 283.203,17.760 283.652,17.956 283.773 C 18.151 283.894,18.436 284.487,18.587 285.092 C 18.739 285.697,18.984 286.284,19.132 286.396 C 19.591 286.746,20.800 289.236,20.800 289.832 C 20.800 290.145,20.966 290.400,21.168 290.400 C 21.371 290.400,21.655 290.940,21.800 291.600 C 21.945 292.260,22.210 292.800,22.388 292.800 C 22.567 292.800,22.837 293.293,22.988 293.896 C 23.140 294.499,23.384 295.084,23.532 295.196 C 23.936 295.503,24.793 296.909,25.058 297.700 C 25.188 298.085,25.452 298.400,25.647 298.400 C 25.841 298.400,26.000 298.768,26.000 299.218 C 26.000 299.668,26.434 300.470,26.964 301.001 C 27.495 301.531,28.049 302.513,28.196 303.183 C 28.343 303.852,28.621 304.400,28.813 304.400 C 29.005 304.400,29.476 305.075,29.860 305.900 C 30.243 306.725,30.792 307.544,31.078 307.720 C 31.365 307.896,31.600 308.223,31.600 308.447 C 31.600 308.897,33.626 311.723,34.100 311.933 C 34.265 312.007,34.400 312.285,34.400 312.552 C 34.400 313.078,35.291 314.371,36.669 315.845 C 37.147 316.356,37.654 317.140,37.796 317.587 C 37.938 318.034,38.222 318.400,38.427 318.400 C 38.632 318.400,38.800 318.657,38.800 318.971 C 38.800 319.285,39.250 319.896,39.800 320.329 C 40.350 320.761,40.800 321.368,40.800 321.676 C 40.800 321.985,41.332 322.679,41.983 323.219 C 42.634 323.758,43.174 324.395,43.183 324.633 C 43.192 324.872,43.735 325.592,44.389 326.233 C 45.043 326.875,45.583 327.592,45.589 327.826 C 45.595 328.061,46.186 328.781,46.903 329.426 C 47.619 330.072,48.496 331.053,48.851 331.607 C 49.206 332.161,51.140 334.275,53.148 336.304 C 55.157 338.334,56.800 340.146,56.800 340.332 C 56.800 340.692,60.202 344.000,60.572 344.000 C 60.693 344.000,62.538 345.710,64.673 347.800 C 66.807 349.890,68.692 351.600,68.861 351.600 C 69.031 351.600,69.885 352.275,70.759 353.100 C 73.412 355.603,74.790 356.776,75.921 357.495 C 76.514 357.873,77.090 358.276,77.200 358.391 C 77.972 359.199,81.530 361.903,82.100 362.115 C 82.485 362.258,82.800 362.561,82.800 362.787 C 82.800 363.014,83.027 363.200,83.304 363.200 C 83.581 363.200,84.256 363.614,84.804 364.121 C 85.352 364.627,86.115 365.161,86.500 365.308 C 86.885 365.455,87.200 365.761,87.200 365.987 C 87.200 366.214,87.541 366.400,87.957 366.400 C 88.374 366.400,88.818 366.670,88.945 367.000 C 89.071 367.330,89.451 367.600,89.787 367.600 C 90.124 367.600,90.400 367.777,90.400 367.992 C 90.400 368.208,90.850 368.498,91.400 368.636 C 91.950 368.774,92.400 369.019,92.400 369.180 C 92.400 369.342,93.072 369.817,93.894 370.237 C 94.716 370.657,95.628 371.225,95.922 371.500 C 96.217 371.775,96.714 372.000,97.029 372.000 C 97.343 372.000,97.600 372.159,97.600 372.353 C 97.600 372.548,97.915 372.812,98.300 372.942 C 99.060 373.197,100.479 374.051,100.800 374.446 C 100.910 374.581,101.450 374.831,102.000 375.001 C 102.550 375.171,103.509 375.735,104.131 376.255 C 104.753 376.775,105.608 377.200,106.031 377.200 C 106.454 377.200,106.800 377.366,106.800 377.568 C 106.800 377.771,107.340 378.055,108.000 378.200 C 108.660 378.345,109.200 378.629,109.200 378.832 C 109.200 379.034,109.470 379.200,109.800 379.200 C 110.130 379.200,110.400 379.372,110.400 379.582 C 110.400 379.792,111.030 380.082,111.800 380.226 C 112.570 380.371,113.200 380.629,113.200 380.801 C 113.200 380.973,113.684 381.235,114.276 381.383 C 114.867 381.532,115.812 381.979,116.376 382.377 C 116.939 382.775,117.985 383.227,118.700 383.382 C 119.415 383.537,120.000 383.813,120.000 383.997 C 120.000 384.180,120.720 384.451,121.600 384.600 C 122.480 384.749,123.200 384.999,123.200 385.156 C 123.200 385.313,124.145 385.774,125.300 386.180 C 126.455 386.586,127.580 387.051,127.800 387.213 C 128.020 387.375,128.785 387.633,129.500 387.786 C 130.215 387.938,130.800 388.229,130.800 388.432 C 130.800 388.634,131.250 388.800,131.800 388.800 C 132.350 388.800,132.800 388.963,132.800 389.162 C 132.800 389.362,133.700 389.649,134.800 389.800 C 135.900 389.951,136.800 390.218,136.800 390.392 C 136.800 390.566,137.610 390.831,138.600 390.979 C 139.590 391.128,140.400 391.418,140.400 391.625 C 140.400 391.831,141.015 392.000,141.767 392.000 C 142.518 392.000,143.194 392.183,143.269 392.407 C 143.344 392.631,144.349 392.926,145.502 393.063 C 146.656 393.200,147.600 393.453,147.600 393.627 C 147.600 393.800,148.592 394.066,149.805 394.218 C 151.018 394.370,152.109 394.652,152.229 394.847 C 152.349 395.041,153.052 395.200,153.790 395.200 C 154.529 395.200,155.193 395.375,155.267 395.589 C 155.340 395.803,156.705 396.099,158.300 396.246 C 159.895 396.394,161.200 396.654,161.200 396.823 C 161.200 396.993,162.595 397.249,164.300 397.391 C 166.005 397.534,167.760 397.810,168.200 398.005 C 168.640 398.199,169.810 398.453,170.800 398.568 C 171.790 398.683,173.860 398.958,175.400 399.179 C 183.496 400.338,226.523 400.005,227.780 398.772 C 227.989 398.568,229.103 398.400,230.256 398.400 C 231.409 398.400,232.451 398.242,232.570 398.048 C 232.690 397.854,234.321 397.568,236.194 397.412 C 238.067 397.256,239.600 396.988,239.600 396.816 C 239.600 396.644,240.856 396.380,242.391 396.228 C 243.926 396.077,245.286 395.784,245.414 395.577 C 245.542 395.370,246.256 395.200,247.000 395.200 C 247.744 395.200,248.451 395.041,248.571 394.847 C 248.691 394.652,249.782 394.370,250.995 394.218 C 252.208 394.066,253.200 393.796,253.200 393.617 C 253.200 393.438,254.190 393.168,255.400 393.017 C 256.610 392.866,257.600 392.575,257.600 392.371 C 257.600 392.167,258.140 392.000,258.800 392.000 C 259.460 392.000,260.000 391.837,260.000 391.638 C 260.000 391.438,260.900 391.151,262.000 391.000 C 263.100 390.849,264.000 390.582,264.000 390.408 C 264.000 390.234,264.806 389.970,265.791 389.822 C 266.776 389.675,267.686 389.384,267.814 389.177 C 267.942 388.970,268.397 388.800,268.824 388.800 C 269.251 388.800,269.600 388.636,269.600 388.435 C 269.600 388.234,270.320 387.949,271.200 387.800 C 272.080 387.651,272.800 387.380,272.800 387.197 C 272.800 387.013,273.373 386.738,274.073 386.584 C 274.773 386.430,275.949 385.966,276.685 385.552 C 277.422 385.138,278.244 384.794,278.512 384.786 C 278.780 384.779,279.720 384.425,280.600 384.000 C 281.480 383.575,282.389 383.221,282.620 383.214 C 283.266 383.193,285.193 382.234,285.197 381.932 C 285.199 381.784,285.740 381.545,286.400 381.400 C 287.060 381.255,287.600 380.971,287.600 380.768 C 287.600 380.566,287.779 380.400,287.997 380.400 C 288.643 380.400,291.600 379.035,291.600 378.737 C 291.600 378.587,292.140 378.345,292.800 378.200 C 293.460 378.055,294.000 377.785,294.000 377.600 C 294.000 377.415,294.540 377.145,295.200 377.000 C 295.859 376.855,296.632 376.404,296.917 375.997 C 297.203 375.590,297.923 375.134,298.518 374.985 C 299.113 374.835,299.600 374.553,299.600 374.357 C 299.600 374.160,299.966 374.000,300.413 374.000 C 300.859 374.000,301.329 373.730,301.455 373.400 C 301.582 373.070,301.949 372.800,302.271 372.800 C 302.594 372.800,303.108 372.575,303.415 372.300 C 304.806 371.052,305.207 370.800,305.801 370.800 C 306.151 370.800,306.886 370.350,307.436 369.800 C 307.986 369.250,308.704 368.800,309.031 368.800 C 309.358 368.800,309.722 368.546,309.841 368.236 C 309.961 367.926,310.495 367.563,311.029 367.428 C 311.563 367.294,312.000 367.008,312.000 366.792 C 312.000 366.577,312.270 366.400,312.600 366.400 C 312.930 366.400,313.200 366.232,313.200 366.027 C 313.200 365.822,313.588 365.531,314.062 365.380 C 314.537 365.230,315.322 364.677,315.808 364.153 C 316.294 363.629,316.896 363.200,317.146 363.200 C 317.396 363.200,317.600 363.032,317.600 362.827 C 317.600 362.622,318.005 362.327,318.500 362.171 C 318.995 362.016,319.796 361.464,320.281 360.944 C 320.765 360.425,321.320 360.000,321.514 360.000 C 321.708 360.000,322.392 359.465,323.033 358.811 C 323.675 358.157,324.392 357.617,324.626 357.611 C 324.861 357.605,325.611 356.970,326.292 356.200 C 326.974 355.430,327.720 354.800,327.950 354.800 C 328.181 354.800,329.082 354.080,329.953 353.200 C 330.824 352.320,331.702 351.600,331.903 351.600 C 332.103 351.600,332.739 351.105,333.316 350.500 C 333.892 349.895,334.867 348.912,335.482 348.315 C 336.097 347.719,336.808 346.999,337.063 346.715 C 337.318 346.432,338.287 345.570,339.217 344.800 C 341.360 343.026,343.026 341.360,344.800 339.217 C 345.570 338.287,346.432 337.318,346.715 337.063 C 346.999 336.808,347.719 336.097,348.315 335.482 C 348.912 334.867,349.895 333.892,350.500 333.316 C 351.105 332.739,351.600 332.103,351.600 331.903 C 351.600 331.702,352.320 330.824,353.200 329.953 C 354.080 329.082,354.800 328.181,354.800 327.950 C 354.800 327.720,355.430 326.974,356.200 326.292 C 356.970 325.611,357.605 324.861,357.611 324.626 C 357.617 324.392,358.157 323.675,358.811 323.033 C 359.465 322.392,360.000 321.708,360.000 321.514 C 360.000 321.320,360.425 320.765,360.944 320.281 C 361.464 319.796,362.016 318.995,362.171 318.500 C 362.327 318.005,362.622 317.600,362.827 317.600 C 363.032 317.600,363.200 317.396,363.200 317.146 C 363.200 316.896,363.629 316.294,364.153 315.808 C 364.677 315.322,365.230 314.537,365.380 314.062 C 365.531 313.588,365.822 313.200,366.027 313.200 C 366.232 313.200,366.400 312.930,366.400 312.600 C 366.400 312.270,366.577 312.000,366.792 312.000 C 367.008 312.000,367.294 311.563,367.428 311.029 C 367.563 310.495,367.926 309.961,368.236 309.841 C 368.546 309.722,368.800 309.303,368.800 308.909 C 368.800 308.515,369.144 307.978,369.564 307.715 C 369.984 307.453,370.445 306.705,370.588 306.052 C 370.732 305.400,371.108 304.767,371.424 304.646 C 371.741 304.524,372.000 304.149,372.000 303.813 C 372.000 303.476,372.180 303.200,372.400 303.200 C 372.620 303.200,372.800 302.840,372.800 302.400 C 372.800 301.960,372.976 301.600,373.190 301.600 C 373.556 301.600,375.200 298.426,375.200 297.718 C 375.200 297.539,375.544 297.178,375.964 296.915 C 376.384 296.653,376.849 295.890,376.996 295.219 C 377.143 294.549,377.415 294.000,377.600 294.000 C 377.785 294.000,378.055 293.460,378.200 292.800 C 378.345 292.140,378.587 291.600,378.737 291.600 C 379.035 291.600,380.400 288.643,380.400 287.997 C 380.400 287.779,380.566 287.600,380.768 287.600 C 380.971 287.600,381.255 287.060,381.400 286.400 C 381.545 285.740,381.784 285.199,381.932 285.197 C 382.234 285.193,383.193 283.266,383.214 282.620 C 383.221 282.389,383.575 281.480,384.000 280.600 C 384.425 279.720,384.779 278.780,384.786 278.512 C 384.794 278.244,385.138 277.422,385.552 276.685 C 385.966 275.949,386.430 274.773,386.584 274.073 C 386.738 273.373,387.013 272.800,387.197 272.800 C 387.380 272.800,387.651 272.080,387.800 271.200 C 387.949 270.320,388.234 269.600,388.435 269.600 C 388.636 269.600,388.800 269.251,388.800 268.824 C 388.800 268.397,388.970 267.942,389.177 267.814 C 389.384 267.686,389.675 266.776,389.822 265.791 C 389.970 264.806,390.234 264.000,390.408 264.000 C 390.582 264.000,390.849 263.100,391.000 262.000 C 391.151 260.900,391.438 260.000,391.638 260.000 C 391.837 260.000,392.000 259.460,392.000 258.800 C 392.000 258.140,392.167 257.600,392.371 257.600 C 392.575 257.600,392.866 256.610,393.017 255.400 C 393.168 254.190,393.438 253.200,393.617 253.200 C 393.796 253.200,394.066 252.208,394.218 250.995 C 394.370 249.782,394.652 248.691,394.847 248.571 C 395.041 248.451,395.200 247.744,395.200 247.000 C 395.200 246.256,395.370 245.542,395.577 245.414 C 395.784 245.286,396.077 243.926,396.228 242.391 C 396.380 240.856,396.644 239.600,396.816 239.600 C 396.988 239.600,397.256 238.067,397.412 236.194 C 397.568 234.321,397.854 232.690,398.048 232.570 C 398.242 232.451,398.400 231.409,398.400 230.256 C 398.400 229.103,398.568 227.989,398.772 227.780 C 400.009 226.518,400.338 183.394,399.171 175.400 C 398.946 173.860,398.665 171.565,398.546 170.300 C 398.426 169.035,398.191 168.000,398.022 168.000 C 397.853 168.000,397.592 166.525,397.442 164.722 C 397.291 162.919,397.017 161.254,396.833 161.022 C 396.648 160.790,396.371 159.385,396.217 157.900 C 396.063 156.415,395.771 155.200,395.568 155.200 C 395.366 155.200,395.200 154.581,395.200 153.824 C 395.200 153.067,395.041 152.349,394.847 152.229 C 394.652 152.109,394.370 151.018,394.218 149.805 C 394.066 148.592,393.800 147.600,393.627 147.600 C 393.453 147.600,393.200 146.656,393.063 145.502 C 392.926 144.349,392.631 143.344,392.407 143.269 C 392.183 143.194,392.000 142.518,392.000 141.767 C 392.000 141.015,391.831 140.400,391.625 140.400 C 391.418 140.400,391.128 139.590,390.979 138.600 C 390.831 137.610,390.566 136.800,390.392 136.800 C 390.218 136.800,389.951 135.900,389.800 134.800 C 389.649 133.700,389.362 132.800,389.162 132.800 C 388.963 132.800,388.800 132.350,388.800 131.800 C 388.800 131.250,388.634 130.800,388.432 130.800 C 388.229 130.800,387.938 130.215,387.786 129.500 C 387.633 128.785,387.375 128.020,387.213 127.800 C 387.051 127.580,386.586 126.455,386.180 125.300 C 385.774 124.145,385.321 123.200,385.172 123.200 C 385.024 123.200,384.787 122.480,384.646 121.600 C 384.506 120.720,384.227 120.000,384.027 120.000 C 383.827 120.000,383.537 119.415,383.382 118.700 C 383.227 117.985,382.775 116.939,382.377 116.376 C 381.979 115.812,381.532 114.867,381.383 114.276 C 381.235 113.684,380.973 113.200,380.801 113.200 C 380.629 113.200,380.371 112.570,380.226 111.800 C 380.082 111.030,379.792 110.400,379.582 110.400 C 379.372 110.400,379.200 110.130,379.200 109.800 C 379.200 109.470,379.034 109.200,378.832 109.200 C 378.629 109.200,378.345 108.660,378.200 108.000 C 378.055 107.340,377.771 106.800,377.568 106.800 C 377.366 106.800,377.200 106.454,377.200 106.031 C 377.200 105.608,376.775 104.753,376.255 104.131 C 375.735 103.509,375.171 102.550,375.001 102.000 C 374.831 101.450,374.581 100.910,374.446 100.800 C 374.051 100.479,373.197 99.060,372.942 98.300 C 372.812 97.915,372.548 97.600,372.353 97.600 C 372.159 97.600,372.000 97.343,372.000 97.029 C 372.000 96.714,371.754 96.211,371.453 95.910 C 371.152 95.609,370.790 94.998,370.648 94.552 C 370.507 94.106,370.078 93.384,369.695 92.949 C 368.806 91.935,368.100 90.837,367.609 89.700 C 367.395 89.205,367.035 88.800,366.810 88.800 C 366.584 88.800,366.400 88.440,366.400 88.000 C 366.400 87.560,366.235 87.200,366.034 87.200 C 365.833 87.200,365.090 86.255,364.384 85.100 C 363.677 83.945,362.852 82.856,362.549 82.680 C 362.247 82.504,362.000 82.176,362.000 81.952 C 362.000 81.601,359.667 78.568,358.100 76.881 C 357.825 76.585,357.600 76.176,357.600 75.971 C 357.600 75.625,356.963 74.889,353.100 70.769 C 352.275 69.889,351.600 69.031,351.600 68.861 C 351.600 68.692,349.890 66.807,347.800 64.673 C 345.710 62.538,344.000 60.693,344.000 60.572 C 344.000 60.202,340.691 56.800,340.331 56.800 C 340.145 56.800,338.363 55.177,336.371 53.193 C 334.380 51.209,332.267 49.275,331.675 48.896 C 331.084 48.516,330.072 47.619,329.426 46.903 C 328.781 46.186,328.052 45.600,327.808 45.600 C 327.563 45.600,326.921 45.068,326.381 44.417 C 325.842 43.766,325.130 43.219,324.800 43.200 C 324.470 43.181,323.758 42.634,323.219 41.983 C 322.679 41.332,321.985 40.800,321.676 40.800 C 321.368 40.800,320.761 40.350,320.329 39.800 C 319.896 39.250,319.285 38.800,318.971 38.800 C 318.657 38.800,318.400 38.632,318.400 38.427 C 318.400 38.222,318.034 37.938,317.587 37.796 C 317.140 37.654,316.356 37.147,315.845 36.669 C 314.371 35.291,313.078 34.400,312.552 34.400 C 312.285 34.400,312.007 34.265,311.933 34.100 C 311.723 33.626,308.897 31.600,308.447 31.600 C 308.223 31.600,307.896 31.365,307.720 31.078 C 307.544 30.792,306.725 30.243,305.900 29.860 C 305.075 29.476,304.400 29.005,304.400 28.813 C 304.400 28.621,303.852 28.343,303.183 28.196 C 302.513 28.049,301.531 27.495,301.001 26.964 C 300.470 26.434,299.668 26.000,299.218 26.000 C 298.768 26.000,298.400 25.841,298.400 25.647 C 298.400 25.452,298.085 25.188,297.700 25.058 C 296.848 24.772,295.489 23.922,295.155 23.466 C 295.021 23.282,294.841 23.142,294.755 23.155 C 294.227 23.232,292.800 22.647,292.800 22.353 C 292.800 22.159,292.586 22.000,292.324 22.000 C 291.706 22.000,286.641 19.492,286.467 19.100 C 286.393 18.935,286.023 18.800,285.643 18.800 C 285.264 18.800,284.604 18.536,284.176 18.213 C 283.749 17.890,283.085 17.620,282.700 17.613 C 282.315 17.606,282.000 17.428,282.000 17.218 C 282.000 17.008,281.370 16.718,280.600 16.574 C 279.830 16.429,279.200 16.167,279.200 15.991 C 279.200 15.814,278.480 15.549,277.600 15.400 C 276.720 15.251,276.000 14.966,276.000 14.765 C 276.000 14.564,275.751 14.400,275.446 14.400 C 275.141 14.400,274.376 14.131,273.746 13.802 C 273.116 13.474,272.285 13.204,271.900 13.202 C 271.515 13.201,271.200 13.036,271.200 12.835 C 271.200 12.634,270.480 12.349,269.600 12.200 C 268.720 12.051,268.000 11.786,268.000 11.610 C 268.000 11.435,267.505 11.188,266.900 11.063 C 264.393 10.545,262.000 9.800,262.000 9.538 C 262.000 9.384,261.010 9.134,259.800 8.983 C 258.590 8.832,257.600 8.549,257.600 8.354 C 257.600 8.159,257.150 8.000,256.600 8.000 C 256.050 8.000,255.600 7.820,255.600 7.600 C 255.600 7.380,255.465 7.231,255.300 7.268 C 254.616 7.425,251.200 6.683,251.200 6.379 C 251.200 6.197,249.936 5.924,248.391 5.772 C 246.846 5.619,245.486 5.339,245.368 5.147 C 245.249 4.956,244.623 4.800,243.976 4.800 C 243.329 4.800,242.800 4.641,242.800 4.447 C 242.800 4.253,241.405 3.964,239.700 3.805 C 237.995 3.646,236.506 3.365,236.392 3.182 C 236.277 2.999,234.342 2.722,232.092 2.567 C 229.841 2.412,228.000 2.131,228.000 1.943 C 228.000 1.754,226.956 1.600,225.680 1.600 C 224.404 1.600,223.144 1.384,222.880 1.120 C 222.402 0.642,190.199 0.296,181.300 0.673 M211.600 10.403 C 215.450 10.597,219.860 10.950,221.400 11.189 C 222.940 11.427,226.180 11.890,228.600 12.218 C 234.303 12.989,238.537 13.739,243.000 14.765 C 246.603 15.595,247.321 15.780,251.800 17.034 C 255.582 18.093,267.268 21.958,268.660 22.610 C 269.354 22.934,270.173 23.200,270.480 23.200 C 270.788 23.200,271.211 23.353,271.420 23.540 C 271.629 23.727,272.610 24.192,273.600 24.573 C 277.551 26.094,292.171 33.178,294.125 34.518 C 294.743 34.942,296.010 35.694,296.940 36.188 C 299.831 37.725,300.554 38.165,302.058 39.300 C 302.859 39.905,303.643 40.400,303.800 40.400 C 303.957 40.400,304.767 40.940,305.600 41.600 C 306.433 42.260,307.226 42.800,307.362 42.800 C 307.856 42.800,312.747 46.344,316.607 49.500 C 318.020 50.655,319.325 51.600,319.507 51.600 C 319.689 51.600,320.541 52.320,321.400 53.200 C 322.259 54.080,323.212 54.800,323.517 54.800 C 324.241 54.800,346.400 76.959,346.400 77.683 C 346.400 77.988,347.120 78.941,348.000 79.800 C 348.880 80.659,349.600 81.511,349.600 81.693 C 349.600 81.875,350.545 83.180,351.700 84.593 C 354.568 88.101,356.756 91.111,358.600 94.085 C 358.820 94.440,359.897 96.051,360.993 97.665 C 363.056 100.704,363.207 100.952,364.896 104.075 C 365.454 105.107,366.260 106.457,366.686 107.075 C 367.113 107.694,369.305 111.980,371.558 116.600 C 373.811 121.220,375.912 125.510,376.227 126.132 C 376.542 126.755,376.806 127.475,376.814 127.732 C 376.821 127.990,377.175 128.920,377.600 129.800 C 378.025 130.680,378.379 131.597,378.386 131.839 C 378.394 132.080,378.667 132.811,378.992 133.464 C 379.318 134.118,380.118 136.350,380.771 138.426 C 381.423 140.502,382.337 143.370,382.802 144.800 C 384.284 149.358,384.528 150.170,384.841 151.600 C 385.009 152.370,385.349 153.720,385.597 154.600 C 386.139 156.524,386.998 160.579,387.845 165.200 C 388.187 167.070,388.633 169.500,388.834 170.600 C 391.867 187.123,391.869 213.968,388.838 230.800 C 387.554 237.930,386.267 244.226,385.650 246.400 C 385.189 248.022,384.129 251.958,383.595 254.034 C 382.892 256.762,379.120 267.801,378.761 268.180 C 378.562 268.389,378.394 268.839,378.386 269.180 C 378.379 269.521,378.025 270.520,377.600 271.400 C 377.175 272.280,376.821 273.227,376.814 273.505 C 376.806 273.783,376.630 274.323,376.423 274.705 C 376.215 275.087,374.122 279.360,371.772 284.200 C 369.421 289.040,367.071 293.573,366.549 294.273 C 366.027 294.974,365.600 295.670,365.600 295.821 C 365.600 296.325,359.384 306.325,358.776 306.800 C 358.635 306.910,358.016 307.810,357.400 308.800 C 356.784 309.790,356.151 310.690,355.993 310.800 C 355.836 310.910,355.007 312.057,354.153 313.348 C 353.299 314.639,352.311 316.130,351.957 316.662 C 351.603 317.193,350.108 319.017,348.634 320.714 C 347.160 322.411,345.290 324.610,344.479 325.600 C 342.563 327.937,327.937 342.563,325.600 344.479 C 324.610 345.290,322.411 347.160,320.714 348.634 C 319.017 350.108,317.193 351.603,316.662 351.957 C 316.130 352.311,314.639 353.299,313.348 354.153 C 312.057 355.007,310.910 355.836,310.800 355.993 C 310.690 356.151,309.790 356.784,308.800 357.400 C 307.810 358.016,306.910 358.635,306.800 358.776 C 306.325 359.384,296.325 365.600,295.821 365.600 C 295.670 365.600,294.974 366.027,294.273 366.549 C 293.573 367.071,289.040 369.421,284.200 371.772 C 279.360 374.122,275.087 376.215,274.705 376.423 C 274.323 376.630,273.783 376.806,273.505 376.814 C 273.227 376.821,272.280 377.175,271.400 377.600 C 270.520 378.025,269.521 378.379,269.180 378.386 C 268.839 378.394,268.389 378.562,268.180 378.761 C 267.801 379.120,256.762 382.892,254.034 383.595 C 251.958 384.129,248.022 385.189,246.400 385.650 C 244.226 386.267,237.930 387.554,230.800 388.838 C 213.968 391.869,187.123 391.867,170.600 388.834 C 169.500 388.633,167.070 388.187,165.200 387.845 C 160.579 386.998,156.524 386.139,154.600 385.597 C 153.720 385.349,152.370 385.009,151.600 384.841 C 150.170 384.528,149.358 384.284,144.800 382.802 C 143.370 382.337,140.502 381.423,138.426 380.771 C 136.350 380.118,134.118 379.318,133.464 378.992 C 132.811 378.667,132.080 378.394,131.839 378.386 C 131.597 378.379,130.680 378.025,129.800 377.600 C 128.920 377.175,127.990 376.821,127.732 376.814 C 127.475 376.806,126.755 376.542,126.132 376.227 C 125.510 375.912,121.220 373.811,116.600 371.558 C 111.980 369.305,107.694 367.113,107.075 366.686 C 106.457 366.260,105.107 365.454,104.075 364.896 C 100.952 363.207,100.704 363.056,97.665 360.993 C 96.051 359.897,94.440 358.820,94.085 358.600 C 91.111 356.756,88.101 354.568,84.593 351.700 C 83.180 350.545,81.875 349.600,81.693 349.600 C 81.511 349.600,80.659 348.880,79.800 348.000 C 78.941 347.120,77.988 346.400,77.683 346.400 C 76.959 346.400,54.800 324.241,54.800 323.517 C 54.800 323.212,54.080 322.259,53.200 321.400 C 52.320 320.541,51.600 319.689,51.600 319.507 C 51.600 319.325,50.655 318.020,49.500 316.607 C 46.344 312.747,42.800 307.856,42.800 307.362 C 42.800 307.226,42.260 306.433,41.600 305.600 C 40.940 304.767,40.400 303.957,40.400 303.800 C 40.400 303.643,39.905 302.859,39.300 302.058 C 38.165 300.554,37.725 299.831,36.188 296.940 C 35.694 296.010,34.942 294.743,34.518 294.125 C 33.178 292.171,26.094 277.551,24.573 273.600 C 24.192 272.610,23.727 271.629,23.540 271.420 C 23.353 271.211,23.200 270.788,23.200 270.480 C 23.200 270.173,22.934 269.354,22.610 268.660 C 21.958 267.268,18.093 255.582,17.034 251.800 C 15.780 247.321,15.595 246.603,14.765 243.000 C 13.742 238.552,12.993 234.323,12.215 228.600 C 11.886 226.180,11.434 223.030,11.210 221.600 C 9.896 213.184,9.895 187.999,11.210 179.600 C 11.433 178.170,11.886 175.020,12.215 172.600 C 13.042 166.516,13.804 162.195,14.508 159.600 C 14.837 158.390,15.227 156.680,15.377 155.800 C 15.526 154.920,15.812 153.660,16.011 153.000 C 16.211 152.340,16.675 150.720,17.043 149.400 C 18.048 145.797,21.956 133.979,22.619 132.540 C 22.939 131.846,23.200 131.027,23.200 130.720 C 23.200 130.412,23.362 129.989,23.559 129.780 C 23.757 129.571,24.489 127.960,25.186 126.200 C 25.884 124.440,26.622 122.685,26.827 122.300 C 27.465 121.103,27.836 120.354,30.440 115.000 C 31.832 112.140,33.525 108.900,34.202 107.800 C 34.880 106.700,35.650 105.350,35.914 104.800 C 36.480 103.622,37.068 102.666,38.299 100.927 C 38.795 100.226,39.200 99.566,39.200 99.459 C 39.200 99.296,40.420 97.456,45.600 89.805 C 45.930 89.318,46.548 88.397,46.974 87.760 C 47.399 87.122,48.614 85.579,49.674 84.332 C 50.733 83.084,51.600 81.935,51.600 81.778 C 51.600 81.621,53.130 79.826,55.000 77.789 C 56.870 75.752,58.400 73.932,58.400 73.746 C 58.400 73.299,73.291 58.400,73.738 58.400 C 73.929 58.400,75.752 56.870,77.789 55.000 C 79.826 53.130,81.621 51.600,81.778 51.600 C 81.935 51.600,83.084 50.733,84.332 49.674 C 85.579 48.614,87.122 47.399,87.760 46.974 C 88.397 46.548,89.318 45.930,89.805 45.600 C 97.456 40.420,99.296 39.200,99.459 39.200 C 99.566 39.200,100.226 38.795,100.927 38.299 C 102.666 37.068,103.622 36.480,104.800 35.914 C 105.350 35.650,106.700 34.880,107.800 34.202 C 108.900 33.525,112.140 31.832,115.000 30.440 C 117.860 29.049,120.470 27.779,120.800 27.618 C 121.130 27.457,121.760 27.129,122.200 26.890 C 122.640 26.651,124.440 25.884,126.200 25.186 C 127.960 24.489,129.571 23.757,129.780 23.559 C 129.989 23.362,130.412 23.200,130.720 23.200 C 131.027 23.200,131.846 22.939,132.540 22.619 C 133.979 21.956,145.797 18.048,149.400 17.043 C 150.720 16.675,152.340 16.211,153.000 16.011 C 153.660 15.812,154.920 15.526,155.800 15.377 C 156.680 15.227,158.390 14.837,159.600 14.508 C 162.204 13.802,166.543 13.037,172.600 12.218 C 175.020 11.890,178.260 11.422,179.800 11.178 C 185.937 10.203,200.546 9.848,211.600 10.403 M136.000 137.200 C 134.656 137.631,136.108 137.631,137.800 137.200 C 138.878 136.926,138.898 136.894,138.000 136.887 C 137.450 136.883,136.550 137.024,136.000 137.200 M261.000 137.219 C 260.442 137.471,260.685 137.507,261.800 137.338 C 262.680 137.204,263.475 137.028,263.567 136.947 C 263.910 136.644,261.768 136.871,261.000 137.219 M250.981 142.500 L 249.400 144.200 251.100 142.619 C 252.681 141.148,252.984 140.800,252.681 140.800 C 252.616 140.800,251.851 141.565,250.981 142.500 M274.200 142.400 C 275.059 143.280,275.852 144.000,275.962 144.000 C 276.072 144.000,275.459 143.280,274.600 142.400 C 273.741 141.520,272.948 140.800,272.838 140.800 C 272.728 140.800,273.341 141.520,274.200 142.400 M282.868 159.400 C 282.862 159.840,283.011 160.560,283.200 161.000 C 283.638 162.019,283.638 160.968,283.200 159.600 C 282.943 158.796,282.877 158.757,282.868 159.400 M116.893 163.600 C 116.893 164.370,116.975 164.685,117.076 164.300 C 117.176 163.915,117.176 163.285,117.076 162.900 C 116.975 162.515,116.893 162.830,116.893 163.600 M241.410 167.010 C 241.251 169.124,241.207 170.940,241.312 171.045 C 241.416 171.150,241.632 169.505,241.790 167.390 C 241.949 165.276,241.993 163.460,241.888 163.355 C 241.784 163.250,241.568 164.895,241.410 167.010 M116.540 169.200 C 116.540 171.070,116.609 171.835,116.693 170.900 C 116.777 169.965,116.777 168.435,116.693 167.500 C 116.609 166.565,116.540 167.330,116.540 169.200 M158.931 169.400 C 158.933 170.940,159.005 171.521,159.092 170.691 C 159.179 169.861,159.177 168.601,159.089 167.891 C 159.000 167.181,158.929 167.860,158.931 169.400 M284.131 169.400 C 284.133 170.940,284.205 171.521,284.292 170.691 C 284.379 169.861,284.377 168.601,284.289 167.891 C 284.200 167.181,284.129 167.860,284.131 169.400 M241.714 173.800 C 241.717 174.900,241.795 175.303,241.887 174.695 C 241.979 174.086,241.977 173.186,241.882 172.695 C 241.787 172.203,241.711 172.700,241.714 173.800 M116.893 175.200 C 116.893 175.970,116.975 176.285,117.076 175.900 C 117.176 175.515,117.176 174.885,117.076 174.500 C 116.975 174.115,116.893 174.430,116.893 175.200 M283.000 178.400 C 282.848 179.091,282.807 179.741,282.909 179.842 C 283.011 179.944,283.209 179.453,283.350 178.750 C 283.683 177.083,283.360 176.760,283.000 178.400 M274.386 196.300 L 272.200 198.600 274.500 196.414 C 275.765 195.211,276.800 194.176,276.800 194.114 C 276.800 193.817,276.418 194.163,274.386 196.300 M149.381 196.500 L 147.800 198.200 149.500 196.619 C 151.081 195.148,151.384 194.800,151.081 194.800 C 151.016 194.800,150.251 195.565,149.381 196.500 " stroke="none" fill="#ef8a32" fill-rule="evenodd"></path></g></svg>
